# WaveFront *.obj file (generated by Cheetah3D)

mtllib staff_flower.mtl

g Staff_Flower
v 0.018631 0.661488 0.009514
v 0.015097 0.657729 -0.014259
v -0.006839 0.648345 -0.009514
v -0.003304 0.652104 0.014259
v 0.033762 -0.103587 0.014517
v 0.023953 -0.103609 -0.022479
v -0.022064 -0.103600 -0.014585
v -0.012187 -0.103614 0.022524
v 0.023098 0.194999 0.009932
v 0.015828 0.195045 -0.017202
v -0.011445 0.195133 -0.009933
v -0.004036 0.195140 0.017202
v 0.004168 0.653036 -0.011901
v 0.007702 0.656796 0.011872
v -0.001054 -0.103593 -0.026561
v 0.012838 -0.103589 0.026515
v 0.000988 0.195123 -0.018317
v 0.010804 0.195061 0.018317
v 0.020058 0.660623 -0.003299
v -0.008380 0.649485 0.003370
v 0.035259 -0.103583 -0.005279
v -0.023570 -0.103593 0.005307
v 0.023945 0.194998 -0.004836
v -0.012153 0.195186 0.004836
v 0.005936 0.659172 -0.000014
v 0.005897 -0.113027 0.000000
v -0.012867 0.813430 0.000000
v -0.012867 0.813430 0.178371
v -0.012867 0.736038 0.160706
v -0.012867 0.673974 0.111213
v -0.012867 0.639531 0.039691
v -0.012867 0.639531 -0.039691
v -0.012867 0.673974 -0.111213
v -0.012867 0.736038 -0.160706
v -0.012867 0.813430 -0.178371
v -0.012867 0.890822 -0.160706
v -0.012867 0.952885 -0.111213
v -0.012867 0.987328 -0.039691
v -0.012867 0.987328 0.039691
v -0.012867 0.952885 0.111213
v -0.012867 0.890822 0.160706
v 0.027564 0.736038 0.160706
v 0.027564 0.813430 0.178371
v 0.027564 0.813430 0.000000
v 0.027564 0.673974 0.111213
v 0.027564 0.639531 0.039691
v 0.027564 0.639531 -0.039691
v 0.027564 0.673974 -0.111213
v 0.027564 0.736038 -0.160706
v 0.027564 0.813430 -0.178371
v 0.027564 0.890822 -0.160706
v 0.027564 0.952885 -0.111213
v 0.027564 0.987328 -0.039691
v 0.027564 0.987328 0.039691
v 0.027564 0.952885 0.111213
v 0.027564 0.890822 0.160706

vt 0.556771 0.868056
vt 0.556771 0.958654
vt 0.601891 0.958654
vt 0.601891 0.868056
vt 0.191330 0.900880
vt 0.188500 0.669920
vt 0.164010 0.670140
vt 0.168840 0.900920
vt 0.089220 0.040850
vt 0.092070 0.061850
vt 0.113910 0.058890
vt 0.110220 0.038000
vt 0.289623 0.046787
vt 0.282463 0.099847
vt 0.322093 0.059437
vt 0.233653 0.097807
vt 0.254323 0.056597
vt 0.275303 0.152907
vt 0.242833 0.140257
vt 0.331273 0.101887
vt 0.310613 0.143097
vt 0.117600 0.079780
vt 0.094920 0.082850
vt 0.092250 0.670260
vt 0.115690 0.670360
vt 0.072240 0.085930
vt 0.050970 0.094150
vt 0.045070 0.670030
vt 0.068820 0.670160
vt 0.181120 0.099090
vt 0.213000 0.669700
vt 0.202070 0.102070
vt 0.138880 0.087950
vt 0.139850 0.670250
vt 0.160160 0.096110
vt 0.070230 0.064810
vt 0.093490 0.900910
vt 0.114680 0.900920
vt 0.044430 0.900860
vt 0.072300 0.900900
vt 0.213820 0.900840
vt 0.141760 0.900920
vt 0.029710 0.102370
vt 0.021310 0.669890
vt 0.068220 0.043700
vt 0.016570 0.900830
vt 0.506455 0.628966
vt 0.555298 0.842960
vt 0.643310 0.800576
vt 0.704215 0.724203
vt 0.725952 0.628966
vt 0.704215 0.533730
vt 0.643309 0.457357
vt 0.555298 0.414972
vt 0.457612 0.414972
vt 0.369600 0.457357
vt 0.308694 0.533730
vt 0.286957 0.628966
vt 0.308694 0.724203
vt 0.369600 0.800576
vt 0.457612 0.842960
vt 0.891605 0.082202
vt 0.803593 0.039818
vt 0.754750 0.253812
vt 0.952510 0.158576
vt 0.974246 0.253812
vt 0.952510 0.349048
vt 0.891605 0.425422
vt 0.803593 0.467806
vt 0.705907 0.467806
vt 0.617896 0.425422
vt 0.556990 0.349048
vt 0.535253 0.253812
vt 0.556990 0.158576
vt 0.617896 0.082202
vt 0.705907 0.039818
vt 0.647011 0.958654
vt 0.647011 0.868056
vt 0.692132 0.958654
vt 0.692131 0.868056
vt 0.737252 0.958653
vt 0.737250 0.868056
vt 0.782371 0.958653
vt 0.782370 0.868056
vt 0.827491 0.958653
vt 0.827490 0.868056
vt 0.872610 0.958653
vt 0.872609 0.868056
vt 0.917730 0.958653
vt 0.917728 0.868055
vt 0.962850 0.958652
vt 0.962847 0.868055
vt 0.331171 0.868055
vt 0.331170 0.958653
vt 0.376290 0.958653
vt 0.376291 0.868055
vt 0.421410 0.958653
vt 0.421411 0.868055
vt 0.466530 0.958654
vt 0.466531 0.868055
vt 0.511650 0.958654
vt 0.511651 0.868055

vn 0.000000 0.433884 0.900969
vn 0.000000 0.000000 1.000000
vn -0.965857 0.036851 0.256440
vn -0.971535 0.022507 0.235824
vn -0.852828 0.019686 0.521821
vn -0.834457 0.032661 0.550105
vn -0.502271 0.863043 -0.053664
vn -0.384379 0.919508 -0.082213
vn -0.348790 0.932100 0.097650
vn -0.466793 0.874626 0.130895
vn 0.292599 -0.953088 -0.077522
vn 0.000769 -1.000000 0.000152
vn 0.241361 -0.957285 0.159221
vn -0.055203 -0.945362 -0.321316
vn 0.165725 -0.949943 -0.264846
vn -0.291227 -0.953482 0.077837
vn -0.239943 -0.957676 -0.159007
vn 0.056749 -0.945181 0.321578
vn -0.164210 -0.950104 0.265212
vn 0.996602 0.008835 0.081896
vn 0.976974 0.008123 -0.213205
vn 0.972103 0.022364 -0.233485
vn 0.996936 0.023001 0.074765
vn -0.050050 0.010287 -0.998694
vn -0.238989 0.010532 -0.970965
vn -0.223330 0.019191 -0.974554
vn 0.039797 0.017090 -0.999062
vn -0.976531 0.008261 0.215217
vn -0.997090 0.023170 -0.072622
vn -0.996636 0.009107 -0.081452
vn 0.237107 0.010418 0.971428
vn 0.223782 0.019108 0.974452
vn -0.039972 0.017101 0.999054
vn 0.047323 0.010329 0.998826
vn -0.287355 0.916686 -0.277694
vn -0.259897 0.959438 -0.109230
vn -0.406968 0.875918 -0.259121
vn 0.966561 0.036716 -0.253794
vn 0.997019 0.037161 0.067615
vn -0.206954 0.028196 -0.977944
vn 0.129321 0.023754 -0.991318
vn -0.997270 0.037226 -0.063772
vn 0.209852 0.028146 0.977328
vn -0.126961 0.023741 0.991624
vn -0.419212 0.010392 -0.907829
vn -0.470287 0.019952 -0.882288
vn 0.418173 0.010125 0.908311
vn 0.471347 0.019774 0.881726
vn -0.519942 0.820861 -0.236321
vn -0.519786 0.029444 -0.853789
vn 0.522811 0.029351 0.851943
vn 0.871890 0.006701 -0.489657
vn 0.854209 0.019586 -0.519560
vn -0.870085 0.006685 0.492856
vn -0.224393 0.972485 0.062615
vn -1.000000 0.000000 0.000000
vn 1.000000 0.000000 0.000000
vn -0.000000 -0.433884 0.900969
vn -0.000001 -0.781829 0.623493
vn -0.000000 -0.974928 0.222522
vn -0.000000 -0.974928 -0.222522
vn -0.000001 -0.781829 -0.623493
vn -0.000000 -0.433884 -0.900969
vn 0.000000 0.000000 -1.000000
vn 0.000000 0.433884 -0.900969
vn -0.000001 0.781829 -0.623493
vn -0.000001 0.974928 -0.222522
vn -0.000001 0.974928 0.222522
vn -0.000001 0.781829 0.623493
vn 0.835357 0.032444 -0.548750

usemtl default
f 28/4/2 43/3/2 56/2/1 41/1/1
f 8/8/6 12/7/5 24/6/4 22/5/3
f 4/12/10 14/11/9 25/10/8 20/9/7
f 5/15/13 26/14/12 21/13/11
f 6/17/15 26/14/12 15/16/14
f 7/19/17 26/14/12 22/18/16
f 8/21/19 26/14/12 16/20/18
f 15/16/14 26/14/12 7/19/17
f 16/20/18 26/14/12 5/15/13
f 21/13/11 26/14/12 6/17/15
f 22/18/16 26/14/12 8/21/19
f 9/25/23 23/24/22 19/23/21 1/22/20
f 10/29/27 17/28/26 13/27/25 2/26/24
f 3/32/30 11/31/29 24/6/4 20/30/28
f 4/35/34 12/7/33 18/34/32 14/33/31
f 13/36/37 25/10/8 19/23/36 2/26/35
f 5/38/39 21/37/38 23/24/22 9/25/23
f 6/40/41 15/39/40 17/28/26 10/29/27
f 7/41/42 22/5/3 24/6/4 11/31/29
f 8/8/44 16/42/43 18/34/32 12/7/33
f 17/28/26 11/44/46 3/43/45 13/27/25
f 9/25/48 1/22/47 14/33/31 18/34/32
f 3/45/49 20/9/7 25/10/8 13/36/37
f 7/46/50 11/44/46 17/28/26 15/39/40
f 5/38/51 9/25/48 18/34/32 16/42/43
f 23/24/22 10/29/53 2/26/52 19/23/21
f 12/7/5 4/35/54 20/30/28 24/6/4
f 14/11/9 1/22/55 19/23/36 25/10/8
f 29/49/56 28/48/56 27/47/56
f 30/50/56 29/49/56 27/47/56
f 31/51/56 30/50/56 27/47/56
f 32/52/56 31/51/56 27/47/56
f 33/53/56 32/52/56 27/47/56
f 34/54/56 33/53/56 27/47/56
f 35/55/56 34/54/56 27/47/56
f 36/56/56 35/55/56 27/47/56
f 37/57/56 36/56/56 27/47/56
f 38/58/56 37/57/56 27/47/56
f 39/59/56 38/58/56 27/47/56
f 40/60/56 39/59/56 27/47/56
f 41/61/56 40/60/56 27/47/56
f 28/48/56 41/61/56 27/47/56
f 44/64/57 43/63/57 42/62/57
f 44/64/57 42/62/57 45/65/57
f 44/64/57 45/65/57 46/66/57
f 44/64/57 46/66/57 47/67/57
f 44/64/57 47/67/57 48/68/57
f 44/64/57 48/68/57 49/69/57
f 44/64/57 49/69/57 50/70/57
f 44/64/57 50/70/57 51/71/57
f 44/64/57 51/71/57 52/72/57
f 44/64/57 52/72/57 53/73/57
f 44/64/57 53/73/57 54/74/57
f 44/64/57 54/74/57 55/75/57
f 44/64/57 55/75/57 56/76/57
f 44/64/57 56/76/57 43/63/57
f 29/78/58 42/77/58 43/3/2 28/4/2
f 30/80/59 45/79/59 42/77/58 29/78/58
f 31/82/60 46/81/60 45/79/59 30/80/59
f 32/84/61 47/83/61 46/81/60 31/82/60
f 33/86/62 48/85/62 47/83/61 32/84/61
f 34/88/63 49/87/63 48/85/62 33/86/62
f 35/90/64 50/89/64 49/87/63 34/88/63
f 36/92/65 51/91/65 50/89/64 35/90/64
f 37/96/66 52/95/66 51/94/65 36/93/65
f 38/98/67 53/97/67 52/95/66 37/96/66
f 39/100/68 54/99/68 53/97/67 38/98/67
f 40/102/69 55/101/69 54/99/68 39/100/68
f 41/1/1 56/2/1 55/101/69 40/102/69
f 6/40/70 10/29/53 23/24/22 21/37/38

